<svg width="167" height="49" viewBox="0 0 167 49" fill="none" xmlns="http://www.w3.org/2000/svg">
<path d="M0.184 18V1.2H7.072C8.304 1.2 9.416 1.408 10.408 1.824C11.416 2.224 12.28 2.8 13 3.552C13.736 4.288 14.296 5.168 14.68 6.192C15.064 7.216 15.256 8.352 15.256 9.6C15.256 10.832 15.064 11.968 14.68 13.008C14.296 14.032 13.744 14.92 13.024 15.672C12.304 16.408 11.44 16.984 10.432 17.4C9.424 17.8 8.304 18 7.072 18H0.184ZM3.784 15.384L3.4 14.76H6.952C7.672 14.76 8.32 14.64 8.896 14.4C9.472 14.144 9.96 13.8 10.36 13.368C10.776 12.92 11.088 12.376 11.296 11.736C11.504 11.096 11.608 10.384 11.608 9.6C11.608 8.816 11.504 8.112 11.296 7.488C11.088 6.848 10.776 6.304 10.36 5.856C9.96 5.408 9.472 5.064 8.896 4.824C8.32 4.568 7.672 4.44 6.952 4.44H3.328L3.784 3.864V15.384ZM22.7841 18.24C21.7281 18.24 20.7761 17.952 19.9281 17.376C19.0801 16.8 18.4081 16.016 17.9121 15.024C17.4161 14.032 17.1681 12.896 17.1681 11.616C17.1681 10.336 17.4161 9.208 17.9121 8.232C18.4241 7.24 19.1121 6.464 19.9761 5.904C20.8401 5.328 21.8241 5.04 22.9281 5.04C23.5521 5.04 24.1201 5.136 24.6321 5.328C25.1601 5.504 25.6161 5.752 26.0001 6.072C26.4001 6.392 26.7361 6.76 27.0081 7.176C27.2801 7.592 27.4721 8.04 27.5841 8.52L26.8641 8.4V5.304H30.2481V18H26.8161V14.952L27.5841 14.88C27.4561 15.328 27.2481 15.752 26.9601 16.152C26.6721 16.552 26.3121 16.912 25.8801 17.232C25.4641 17.536 24.9921 17.784 24.4641 17.976C23.9361 18.152 23.3761 18.24 22.7841 18.24ZM23.7201 15.288C24.3601 15.288 24.9201 15.136 25.4001 14.832C25.8801 14.528 26.2481 14.104 26.5041 13.56C26.7761 13 26.9121 12.352 26.9121 11.616C26.9121 10.896 26.7761 10.264 26.5041 9.72C26.2481 9.176 25.8801 8.752 25.4001 8.448C24.9201 8.128 24.3601 7.968 23.7201 7.968C23.0961 7.968 22.5441 8.128 22.0641 8.448C21.6001 8.752 21.2321 9.176 20.9601 9.72C20.6881 10.264 20.5521 10.896 20.5521 11.616C20.5521 12.352 20.6881 13 20.9601 13.56C21.2321 14.104 21.6001 14.528 22.0641 14.832C22.5441 15.136 23.0961 15.288 23.7201 15.288ZM34.8889 18V2.088H38.2969V18H34.8889ZM32.5129 8.352V5.304H40.8889V8.352H32.5129ZM47.7451 18.24C46.6891 18.24 45.7371 17.952 44.8891 17.376C44.0411 16.8 43.3691 16.016 42.8731 15.024C42.3771 14.032 42.1291 12.896 42.1291 11.616C42.1291 10.336 42.3771 9.208 42.8731 8.232C43.3851 7.24 44.0731 6.464 44.9371 5.904C45.8011 5.328 46.7851 5.04 47.8891 5.04C48.5131 5.04 49.0811 5.136 49.5931 5.328C50.1211 5.504 50.5771 5.752 50.9611 6.072C51.3611 6.392 51.6971 6.76 51.9691 7.176C52.2411 7.592 52.4331 8.04 52.5451 8.52L51.8251 8.4V5.304H55.2091V18H51.7771V14.952L52.5451 14.88C52.4171 15.328 52.2091 15.752 51.9211 16.152C51.6331 16.552 51.2731 16.912 50.8411 17.232C50.4251 17.536 49.9531 17.784 49.4251 17.976C48.8971 18.152 48.3371 18.24 47.7451 18.24ZM48.6811 15.288C49.3211 15.288 49.8811 15.136 50.3611 14.832C50.8411 14.528 51.2091 14.104 51.4651 13.56C51.7371 13 51.8731 12.352 51.8731 11.616C51.8731 10.896 51.7371 10.264 51.4651 9.72C51.2091 9.176 50.8411 8.752 50.3611 8.448C49.8811 8.128 49.3211 7.968 48.6811 7.968C48.0571 7.968 47.5051 8.128 47.0251 8.448C46.5611 8.752 46.1931 9.176 45.9211 9.72C45.6491 10.264 45.5131 10.896 45.5131 11.616C45.5131 12.352 45.6491 13 45.9211 13.56C46.1931 14.104 46.5611 14.528 47.0251 14.832C47.5051 15.136 48.0571 15.288 48.6811 15.288Z" fill="#50B848"/>
<path d="M59.1059 18V1.2H62.7059V18H59.1059ZM60.7619 11.328V8.232H69.4499V11.328H60.7619ZM60.7619 4.44V1.2H70.4579V4.44H60.7619ZM73.3686 18V0.24H76.7766V18H73.3686ZM86.0249 18.24C84.6489 18.24 83.4489 17.96 82.4249 17.4C81.4009 16.84 80.6009 16.072 80.0249 15.096C79.4489 14.12 79.1609 13 79.1609 11.736C79.1609 10.76 79.3209 9.864 79.6409 9.048C79.9609 8.232 80.4089 7.528 80.9849 6.936C81.5609 6.328 82.2409 5.864 83.0249 5.544C83.8249 5.208 84.6889 5.04 85.6169 5.04C86.4809 5.04 87.2809 5.2 88.0169 5.52C88.7529 5.824 89.3849 6.264 89.9129 6.84C90.4569 7.4 90.8729 8.064 91.1609 8.832C91.4489 9.6 91.5769 10.44 91.5449 11.352L91.5209 12.408H81.3209L80.7689 10.32H88.7129L88.3289 10.752V10.224C88.2969 9.792 88.1529 9.4 87.8969 9.048C87.6569 8.696 87.3449 8.424 86.9609 8.232C86.5769 8.04 86.1449 7.944 85.6649 7.944C84.9609 7.944 84.3609 8.08 83.8649 8.352C83.3849 8.624 83.0169 9.024 82.7609 9.552C82.5049 10.08 82.3769 10.72 82.3769 11.472C82.3769 12.24 82.5369 12.904 82.8569 13.464C83.1929 14.024 83.6569 14.464 84.2489 14.784C84.8569 15.088 85.5689 15.24 86.3849 15.24C86.9449 15.24 87.4569 15.152 87.9209 14.976C88.3849 14.8 88.8809 14.496 89.4089 14.064L91.0409 16.344C90.5769 16.76 90.0649 17.112 89.5049 17.4C88.9449 17.672 88.3689 17.88 87.7769 18.024C87.1849 18.168 86.6009 18.24 86.0249 18.24ZM102.009 18L98.8651 13.512L97.9051 12.168L92.7691 5.304H96.8971L99.9691 9.648L101.025 11.088L106.089 18H102.009ZM92.7211 18L97.7851 11.064L99.6571 13.296L96.7291 18H92.7211ZM100.881 12.288L99.0571 10.056L101.769 5.304H105.777L100.881 12.288ZM29.6301 48.24C28.3981 48.24 27.2621 48.032 26.2221 47.616C25.1981 47.184 24.3021 46.584 23.5341 45.816C22.7821 45.032 22.1981 44.112 21.7821 43.056C21.3661 41.984 21.1581 40.816 21.1581 39.552C21.1581 38.32 21.3741 37.184 21.8061 36.144C22.2381 35.088 22.8461 34.176 23.6301 33.408C24.4141 32.624 25.3341 32.016 26.3901 31.584C27.4461 31.152 28.5901 30.936 29.8221 30.936C30.6221 30.936 31.4061 31.048 32.1741 31.272C32.9581 31.48 33.6701 31.792 34.3101 32.208C34.9661 32.624 35.5261 33.12 35.9901 33.696L33.7341 36.192C33.3501 35.808 32.9501 35.48 32.5341 35.208C32.1341 34.92 31.7021 34.704 31.2381 34.56C30.7901 34.4 30.3101 34.32 29.7981 34.32C29.1101 34.32 28.4621 34.448 27.8541 34.704C27.2621 34.96 26.7421 35.32 26.2941 35.784C25.8461 36.232 25.4861 36.784 25.2141 37.44C24.9581 38.08 24.8301 38.792 24.8301 39.576C24.8301 40.376 24.9581 41.104 25.2141 41.76C25.4701 42.4 25.8301 42.952 26.2941 43.416C26.7581 43.864 27.3101 44.216 27.9501 44.472C28.6061 44.712 29.3261 44.832 30.1101 44.832C30.6221 44.832 31.1181 44.76 31.5981 44.616C32.0781 44.472 32.5181 44.272 32.9181 44.016C33.3341 43.76 33.7021 43.464 34.0221 43.128L35.7741 45.936C35.3901 46.368 34.8701 46.76 34.2141 47.112C33.5741 47.464 32.8541 47.744 32.0541 47.952C31.2541 48.144 30.4461 48.24 29.6301 48.24ZM44.233 48.24C42.937 48.24 41.777 47.96 40.753 47.4C39.745 46.824 38.945 46.04 38.353 45.048C37.777 44.056 37.489 42.92 37.489 41.64C37.489 40.36 37.777 39.232 38.353 38.256C38.945 37.264 39.745 36.48 40.753 35.904C41.777 35.328 42.937 35.04 44.233 35.04C45.513 35.04 46.657 35.328 47.665 35.904C48.689 36.48 49.489 37.264 50.065 38.256C50.641 39.232 50.929 40.36 50.929 41.64C50.929 42.92 50.641 44.056 50.065 45.048C49.489 46.04 48.689 46.824 47.665 47.4C46.657 47.96 45.513 48.24 44.233 48.24ZM44.233 45.264C44.857 45.264 45.417 45.112 45.913 44.808C46.409 44.488 46.793 44.056 47.065 43.512C47.353 42.952 47.497 42.328 47.497 41.64C47.497 40.936 47.353 40.312 47.065 39.768C46.793 39.208 46.409 38.776 45.913 38.472C45.417 38.152 44.857 37.992 44.233 37.992C43.593 37.992 43.025 38.152 42.529 38.472C42.033 38.792 41.641 39.224 41.353 39.768C41.065 40.312 40.929 40.936 40.945 41.64C40.929 42.328 41.065 42.952 41.353 43.512C41.641 44.056 42.033 44.488 42.529 44.808C43.025 45.112 43.593 45.264 44.233 45.264ZM53.4931 48V35.304H56.7571L56.8531 37.896L56.1811 38.184C56.3571 37.608 56.6691 37.088 57.1171 36.624C57.5811 36.144 58.1331 35.76 58.7731 35.472C59.4131 35.184 60.0851 35.04 60.7891 35.04C61.7491 35.04 62.5491 35.232 63.1891 35.616C63.8451 36 64.3331 36.584 64.6531 37.368C64.9891 38.136 65.1571 39.088 65.1571 40.224V48H61.7491V40.488C61.7491 39.912 61.6691 39.432 61.5091 39.048C61.3491 38.664 61.1011 38.384 60.7651 38.208C60.4451 38.016 60.0451 37.936 59.5651 37.968C59.1811 37.968 58.8211 38.032 58.4851 38.16C58.1651 38.272 57.8851 38.44 57.6451 38.664C57.4211 38.888 57.2371 39.144 57.0931 39.432C56.9651 39.72 56.9011 40.032 56.9011 40.368V48H55.2211C54.8531 48 54.5251 48 54.2371 48C53.9491 48 53.7011 48 53.4931 48ZM68.4228 48V35.304H71.6868L71.7828 37.896L71.1108 38.184C71.2868 37.608 71.5988 37.088 72.0468 36.624C72.5108 36.144 73.0628 35.76 73.7028 35.472C74.3428 35.184 75.0148 35.04 75.7188 35.04C76.6788 35.04 77.4788 35.232 78.1188 35.616C78.7748 36 79.2628 36.584 79.5828 37.368C79.9188 38.136 80.0868 39.088 80.0868 40.224V48H76.6788V40.488C76.6788 39.912 76.5988 39.432 76.4388 39.048C76.2788 38.664 76.0308 38.384 75.6948 38.208C75.3748 38.016 74.9748 37.936 74.4948 37.968C74.1108 37.968 73.7508 38.032 73.4148 38.16C73.0948 38.272 72.8148 38.44 72.5748 38.664C72.3508 38.888 72.1668 39.144 72.0228 39.432C71.8948 39.72 71.8308 40.032 71.8308 40.368V48H70.1508C69.7828 48 69.4548 48 69.1668 48C68.8788 48 68.6308 48 68.4228 48ZM89.3764 48.24C88.0004 48.24 86.8004 47.96 85.7764 47.4C84.7524 46.84 83.9524 46.072 83.3764 45.096C82.8004 44.12 82.5124 43 82.5124 41.736C82.5124 40.76 82.6724 39.864 82.9924 39.048C83.3124 38.232 83.7604 37.528 84.3364 36.936C84.9124 36.328 85.5924 35.864 86.3764 35.544C87.1764 35.208 88.0404 35.04 88.9684 35.04C89.8324 35.04 90.6324 35.2 91.3684 35.52C92.1044 35.824 92.7364 36.264 93.2644 36.84C93.8084 37.4 94.2244 38.064 94.5124 38.832C94.8004 39.6 94.9284 40.44 94.8964 41.352L94.8724 42.408H84.6724L84.1204 40.32H92.0644L91.6804 40.752V40.224C91.6484 39.792 91.5044 39.4 91.2484 39.048C91.0084 38.696 90.6964 38.424 90.3124 38.232C89.9284 38.04 89.4964 37.944 89.0164 37.944C88.3124 37.944 87.7124 38.08 87.2164 38.352C86.7364 38.624 86.3684 39.024 86.1124 39.552C85.8564 40.08 85.7284 40.72 85.7284 41.472C85.7284 42.24 85.8884 42.904 86.2084 43.464C86.5444 44.024 87.0084 44.464 87.6004 44.784C88.2084 45.088 88.9204 45.24 89.7364 45.24C90.2964 45.24 90.8084 45.152 91.2724 44.976C91.7364 44.8 92.2324 44.496 92.7604 44.064L94.3924 46.344C93.9284 46.76 93.4164 47.112 92.8564 47.4C92.2964 47.672 91.7204 47.88 91.1284 48.024C90.5364 48.168 89.9524 48.24 89.3764 48.24ZM102.935 48.24C101.719 48.24 100.631 47.952 99.6709 47.376C98.7109 46.8 97.9509 46.016 97.3909 45.024C96.8469 44.032 96.5749 42.904 96.5749 41.64C96.5749 40.392 96.8469 39.272 97.3909 38.28C97.9509 37.272 98.7109 36.48 99.6709 35.904C100.631 35.328 101.719 35.04 102.935 35.04C104.071 35.04 105.111 35.248 106.055 35.664C106.999 36.08 107.735 36.656 108.263 37.392L106.391 39.648C106.167 39.344 105.887 39.072 105.551 38.832C105.215 38.576 104.847 38.376 104.447 38.232C104.063 38.088 103.663 38.016 103.247 38.016C102.591 38.016 102.007 38.176 101.495 38.496C100.999 38.8 100.607 39.224 100.319 39.768C100.031 40.312 99.8869 40.936 99.8869 41.64C99.8869 42.328 100.031 42.944 100.319 43.488C100.623 44.016 101.031 44.448 101.543 44.784C102.055 45.104 102.631 45.264 103.271 45.264C103.687 45.264 104.079 45.208 104.447 45.096C104.815 44.968 105.159 44.784 105.479 44.544C105.815 44.304 106.119 44.016 106.391 43.68L108.239 45.936C107.695 46.624 106.943 47.184 105.983 47.616C105.023 48.032 104.007 48.24 102.935 48.24ZM111.647 48V32.088H115.055V48H111.647ZM109.271 38.352V35.304H117.647V38.352H109.271Z" fill="#2A2A2A"/>
<path d="M130.932 48V31.2H134.532V48H130.932ZM120.348 48V31.2H123.948V48H120.348ZM121.788 41.256L121.812 37.992H132.78V41.256H121.788ZM142.799 48.24C141.871 48.24 141.071 48.04 140.399 47.64C139.743 47.224 139.231 46.64 138.863 45.888C138.511 45.12 138.335 44.2 138.335 43.128V35.304H141.743V42.576C141.743 43.152 141.839 43.656 142.031 44.088C142.223 44.504 142.495 44.824 142.847 45.048C143.199 45.272 143.631 45.384 144.143 45.384C144.511 45.384 144.855 45.328 145.175 45.216C145.495 45.088 145.767 44.912 145.991 44.688C146.215 44.464 146.391 44.2 146.519 43.896C146.647 43.592 146.711 43.264 146.711 42.912V35.304H150.119V48H146.879L146.759 45.384L147.383 45.096C147.191 45.688 146.871 46.224 146.423 46.704C145.975 47.184 145.439 47.56 144.815 47.832C144.191 48.104 143.519 48.24 142.799 48.24ZM160.868 48.24C160.308 48.24 159.764 48.16 159.236 48C158.708 47.84 158.228 47.624 157.796 47.352C157.364 47.064 157.004 46.744 156.716 46.392C156.428 46.024 156.244 45.648 156.164 45.264L156.932 44.976L156.764 47.952H153.548V30.24H156.956V38.28L156.308 38.016C156.404 37.632 156.588 37.264 156.86 36.912C157.132 36.544 157.476 36.224 157.892 35.952C158.308 35.664 158.764 35.44 159.26 35.28C159.756 35.12 160.268 35.04 160.796 35.04C161.9 35.04 162.884 35.328 163.748 35.904C164.612 36.464 165.292 37.24 165.788 38.232C166.3 39.224 166.556 40.36 166.556 41.64C166.556 42.92 166.308 44.056 165.812 45.048C165.316 46.04 164.636 46.824 163.772 47.4C162.924 47.96 161.956 48.24 160.868 48.24ZM160.052 45.336C160.692 45.336 161.244 45.184 161.708 44.88C162.188 44.56 162.564 44.128 162.836 43.584C163.108 43.024 163.244 42.376 163.244 41.64C163.244 40.92 163.108 40.28 162.836 39.72C162.58 39.16 162.212 38.728 161.732 38.424C161.252 38.12 160.692 37.968 160.052 37.968C159.412 37.968 158.852 38.12 158.372 38.424C157.892 38.728 157.516 39.16 157.244 39.72C156.972 40.28 156.836 40.92 156.836 41.64C156.836 42.376 156.972 43.024 157.244 43.584C157.516 44.128 157.892 44.56 158.372 44.88C158.852 45.184 159.412 45.336 160.052 45.336Z" fill="#F98128"/>
</svg>
